#N canvas 341 174 450 300 10;
#X obj 114 76 mtof;
#X msg 179 76 \$1 50;
#X obj 114 258 dac~;
#X obj 248 93 bng 15 250 50 0 empty empty empty 17 7 0 10 -262144 -1
-1;
#X floatatom 42 104 5 0 0 0 - - -, f 5;
#X obj 179 126 line~;
#X obj 114 200 *~;
#X obj 179 50 / 127;
#X obj 266 113 s beat;
#X obj 114 23 notein;
#X obj 114 126 osc~ 1000;
#X connect 0 0 10 0;
#X connect 1 0 3 0;
#X connect 1 0 5 0;
#X connect 3 0 8 0;
#X connect 4 0 1 0;
#X connect 4 0 10 0;
#X connect 5 0 6 1;
#X connect 6 0 2 0;
#X connect 6 0 2 1;
#X connect 7 0 1 0;
#X connect 9 0 0 0;
#X connect 9 1 7 0;
#X connect 10 0 6 0;
